<svg width="800" height="401" viewBox="0 0 800 401" fill="none" xmlns="http://www.w3.org/2000/svg">
<path d="M784.344 122.28C769.08 86.3062 743.722 55.7797 711.753 34.1719C695.845 23.4328 678.244 14.8906 659.353 9.06562C640.589 3.11405 620.538 0.00624657 599.841 0.00624657C573.306 0.00624657 547.819 5.18749 524.533 14.6391C522.586 15.4078 520.78 16.1797 518.973 17.0891C498.011 26.275 478.856 39.2141 462.43 54.6156C457.123 59.6578 452.081 64.9641 447.027 70.9156C438.106 81.1375 428.92 92.9141 419.987 104.816C418.18 107.266 416.234 109.856 414.428 112.322C409.513 119.044 362.534 187.881 354.258 200.175C350.114 206.378 345.198 213.366 339.891 220.998C338.728 222.68 337.441 224.498 336.152 226.305C327.345 238.853 317.514 252.056 308.455 263.706C303.931 269.519 299.395 274.952 295.516 279.488C291.511 284.138 287.884 287.891 285.294 290.353C274.175 300.828 261.097 309.37 246.744 315.195C232.378 321.02 216.722 324.255 200.156 324.255C188.772 324.255 177.778 322.698 167.431 319.856C162.125 318.43 156.944 316.622 151.902 314.423C129.639 305.098 110.622 289.317 97.2922 269.517C90.5703 259.561 85.2625 248.694 81.6375 237.044C78.1484 225.394 76.0781 213.113 76.0781 200.173C76.0781 182.964 79.5781 166.791 85.7812 151.905C95.2328 129.655 111.014 110.766 130.814 97.3078C140.77 90.5734 151.636 85.4047 163.286 81.7781C174.923 78.1516 187.217 76.0938 200.156 76.0938C216.722 76.2188 232.378 79.3281 246.744 85.1406C261.098 91.0906 274.175 99.5063 285.294 109.981C287.884 112.445 291.511 116.323 295.516 120.859C302.503 129.009 310.78 139.484 319.069 150.491C322.303 154.888 325.538 159.284 328.772 163.808C341.192 145.702 362.925 113.872 374.309 97.4328C372.377 94.8422 370.431 92.2656 368.497 89.675C363.316 83.0656 358.136 76.7359 352.969 70.9109C347.787 64.9594 342.872 59.6531 337.566 54.6109C319.713 37.7797 298.625 24.0719 275.462 14.6328C252.175 5.18125 226.678 0 200.156 0C172.598 0 146.203 5.57187 122.145 15.7937C86.1734 30.9312 55.7594 56.2906 34.1516 88.2453C23.4125 104.167 14.8828 121.881 8.93125 140.645C3.10781 159.541 0 179.467 0 200.177C0 227.734 5.55938 254.13 15.6563 278.061C30.9188 314.161 56.2781 344.575 88.1078 366.181C104.155 376.922 121.756 385.45 140.645 391.402C159.408 397.227 179.461 400.334 200.158 400.334C226.68 400.334 252.178 395.153 275.464 385.716C298.627 376.264 319.587 362.553 337.442 345.863L337.567 345.736C342.875 340.82 347.791 335.375 352.97 329.423C361.891 319.202 371.077 307.437 380.009 295.534C381.817 293.07 383.763 290.606 385.569 288.155C390.484 281.294 454.798 186.97 460.094 179.339C461.269 177.658 462.558 175.852 463.845 174.033C472.653 161.611 482.483 148.283 491.542 136.645C496.066 130.82 500.602 125.386 504.481 120.862C508.488 116.2 512.114 112.447 514.703 109.984C525.822 99.5094 538.9 91.0937 553.255 85.1437C556.755 83.7281 560.242 82.5672 563.867 81.3906C575.252 78.0313 587.28 76.2234 599.841 76.0969C617.048 76.2219 633.35 79.5844 648.094 85.9266C670.345 95.2391 689.375 111.02 702.692 130.82C709.427 140.789 714.733 151.656 718.347 163.292C721.973 174.942 723.919 187.236 723.919 200.175C723.919 217.384 720.419 233.684 714.216 248.43C704.764 270.68 688.983 289.709 669.183 303.027C659.227 309.761 648.361 315.069 636.711 318.556C625.2 322.183 612.78 324.256 599.841 324.256C583.275 324.256 567.619 321.022 553.253 315.197C538.898 309.372 525.82 300.83 514.702 290.355C512.111 287.891 508.484 284.013 504.48 279.489C497.492 271.466 489.205 260.852 480.927 249.859C477.567 245.461 474.331 240.925 471.097 236.402C470.061 237.955 469.025 239.511 467.863 241.191C446.509 272.502 433.052 292.3 425.684 303.028C427.617 305.619 429.564 308.083 431.497 310.673C436.678 317.269 441.858 323.612 447.025 329.423C452.078 335.373 457.122 340.82 462.428 345.736C480.281 362.553 501.37 376.264 524.531 385.716C547.819 395.153 573.305 400.334 599.839 400.334C627.395 400.334 653.792 394.775 677.723 384.68C713.822 369.416 744.223 344.056 765.842 312.089C776.57 296.181 785.25 278.58 791.062 259.689C796.891 240.925 800 220.873 800 200.177C800 172.619 794.441 146.223 784.344 122.28Z" fill="black"/>
<path d="M576.292 135.933C564.301 129.054 554.58 134.689 554.58 148.508V250.483C554.58 264.315 564.301 269.942 576.292 263.071L665.423 211.955C677.418 205.074 677.418 193.927 665.423 187.048L576.292 135.933Z" fill="black"/>
</svg>
