<svg width="800" height="493" viewBox="0 0 800 493" fill="none" xmlns="http://www.w3.org/2000/svg">
<path d="M784.344 122.28C769.08 86.3062 743.722 55.7797 711.753 34.1719C695.845 23.4328 678.244 14.8906 659.353 9.06562C640.589 3.11405 620.538 0.00624657 599.841 0.00624657C573.306 0.00624657 547.819 5.18749 524.533 14.6391C522.586 15.4078 520.78 16.1797 518.973 17.0891C498.011 26.275 478.856 39.2141 462.43 54.6156C457.123 59.6578 452.081 64.9641 447.027 70.9156C438.106 81.1375 428.92 92.9141 419.987 104.816C418.18 107.266 416.234 109.856 414.428 112.322C409.513 119.044 362.534 187.881 354.258 200.175C350.114 206.378 345.198 213.366 339.891 220.998C338.728 222.68 337.441 224.498 336.152 226.305C327.345 238.853 317.514 252.056 308.455 263.706C303.931 269.519 299.395 274.952 295.516 279.488C291.511 284.138 287.884 287.891 285.294 290.353C274.175 300.828 261.097 309.37 246.744 315.195C232.378 321.02 216.722 324.255 200.156 324.255C188.772 324.255 177.778 322.698 167.431 319.856C162.125 318.43 156.944 316.622 151.902 314.423C129.639 305.098 110.622 289.317 97.2922 269.517C90.5703 259.561 85.2625 248.694 81.6375 237.044C78.1484 225.394 76.0781 213.113 76.0781 200.173C76.0781 182.964 79.5781 166.791 85.7812 151.905C95.2328 129.655 111.014 110.766 130.814 97.3078C140.77 90.5734 151.636 85.4047 163.286 81.7781C174.923 78.1516 187.217 76.0938 200.156 76.0938C216.722 76.2188 232.378 79.3281 246.744 85.1406C261.098 91.0906 274.175 99.5063 285.294 109.981C287.884 112.445 291.511 116.323 295.516 120.859C302.503 129.009 310.78 139.484 319.069 150.491C322.303 154.888 325.538 159.284 328.772 163.808C341.192 145.702 362.925 113.872 374.309 97.4328C372.377 94.8422 370.431 92.2656 368.497 89.675C363.316 83.0656 358.136 76.7359 352.969 70.9109C347.787 64.9594 342.872 59.6531 337.566 54.6109C319.713 37.7797 298.625 24.0719 275.462 14.6328C252.175 5.18125 226.678 0 200.156 0C172.598 0 146.203 5.57187 122.145 15.7937C86.1734 30.9312 55.7594 56.2906 34.1516 88.2453C23.4125 104.167 14.8828 121.881 8.93125 140.645C3.10781 159.541 0 179.467 0 200.177C0 227.734 5.55938 254.13 15.6563 278.061C30.9188 314.161 56.2781 344.575 88.1078 366.181C104.155 376.922 121.756 385.45 140.645 391.402C159.408 397.227 179.461 400.334 200.158 400.334C226.68 400.334 252.178 395.153 275.464 385.716C298.627 376.264 319.587 362.553 337.442 345.863L337.567 345.736C342.875 340.82 347.791 335.375 352.97 329.423C361.891 319.202 371.077 307.437 380.009 295.534C381.817 293.07 383.763 290.606 385.569 288.155C390.484 281.294 454.798 186.97 460.094 179.339C461.269 177.658 462.558 175.852 463.845 174.033C472.653 161.611 482.483 148.283 491.542 136.645C496.066 130.82 500.602 125.386 504.481 120.862C508.488 116.2 512.114 112.447 514.703 109.984C525.822 99.5094 538.9 91.0937 553.255 85.1437C556.755 83.7281 560.242 82.5672 563.867 81.3906C575.252 78.0313 587.28 76.2234 599.841 76.0969C617.048 76.2219 633.35 79.5844 648.094 85.9266C670.345 95.2391 689.375 111.02 702.692 130.82C709.427 140.789 714.733 151.656 718.347 163.292C721.973 174.942 723.919 187.236 723.919 200.175C723.919 217.384 720.419 233.684 714.216 248.43C704.764 270.68 688.983 289.709 669.183 303.027C659.227 309.761 648.361 315.069 636.711 318.556C625.2 322.183 612.78 324.256 599.841 324.256C583.275 324.256 567.619 321.022 553.253 315.197C538.898 309.372 525.82 300.83 514.702 290.355C512.111 287.891 508.484 284.013 504.48 279.489C497.492 271.466 489.205 260.852 480.927 249.859C477.567 245.461 474.331 240.925 471.097 236.402C470.061 237.955 469.025 239.511 467.863 241.191C446.509 272.502 433.052 292.3 425.684 303.028C427.617 305.619 429.564 308.083 431.497 310.673C436.678 317.269 441.858 323.612 447.025 329.423C452.078 335.373 457.122 340.82 462.428 345.736C480.281 362.553 501.37 376.264 524.531 385.716C547.819 395.153 573.305 400.334 599.839 400.334C627.395 400.334 653.792 394.775 677.723 384.68C713.822 369.416 744.223 344.056 765.842 312.089C776.57 296.181 785.25 278.58 791.062 259.689C796.891 240.925 800 220.873 800 200.177C800 172.619 794.441 146.223 784.344 122.28Z" fill="black"/>
<path d="M576.292 135.933C564.301 129.054 554.58 134.689 554.58 148.508V250.483C554.58 264.315 564.301 269.942 576.292 263.071L665.423 211.955C677.418 205.074 677.418 193.927 665.423 187.048L576.292 135.933Z" fill="black"/>
<path d="M53.7266 424.812V476H46.9414V424.812H53.7266ZM75.1719 447.84V453.395H52.25V447.84H75.1719ZM78.6523 424.812V430.367H52.25V424.812H78.6523ZM83.2578 457.402V456.594C83.2578 453.852 83.6562 451.309 84.4531 448.965C85.25 446.598 86.3984 444.547 87.8984 442.812C89.3984 441.055 91.2148 439.695 93.3477 438.734C95.4805 437.75 97.8711 437.258 100.52 437.258C103.191 437.258 105.594 437.75 107.727 438.734C109.883 439.695 111.711 441.055 113.211 442.812C114.734 444.547 115.895 446.598 116.691 448.965C117.488 451.309 117.887 453.852 117.887 456.594V457.402C117.887 460.145 117.488 462.688 116.691 465.031C115.895 467.375 114.734 469.426 113.211 471.184C111.711 472.918 109.895 474.277 107.762 475.262C105.652 476.223 103.262 476.703 100.59 476.703C97.918 476.703 95.5156 476.223 93.3828 475.262C91.25 474.277 89.4219 472.918 87.8984 471.184C86.3984 469.426 85.25 467.375 84.4531 465.031C83.6562 462.688 83.2578 460.145 83.2578 457.402ZM89.7617 456.594V457.402C89.7617 459.301 89.9844 461.094 90.4297 462.781C90.875 464.445 91.543 465.922 92.4336 467.211C93.3477 468.5 94.4844 469.52 95.8438 470.27C97.2031 470.996 98.7852 471.359 100.59 471.359C102.371 471.359 103.93 470.996 105.266 470.27C106.625 469.52 107.75 468.5 108.641 467.211C109.531 465.922 110.199 464.445 110.645 462.781C111.113 461.094 111.348 459.301 111.348 457.402V456.594C111.348 454.719 111.113 452.949 110.645 451.285C110.199 449.598 109.52 448.109 108.605 446.82C107.715 445.508 106.59 444.477 105.23 443.727C103.895 442.977 102.324 442.602 100.52 442.602C98.7383 442.602 97.168 442.977 95.8086 443.727C94.4727 444.477 93.3477 445.508 92.4336 446.82C91.543 448.109 90.875 449.598 90.4297 451.285C89.9844 452.949 89.7617 454.719 89.7617 456.594ZM132.547 443.938V476H126.043V437.961H132.371L132.547 443.938ZM144.43 437.75L144.395 443.797C143.855 443.68 143.34 443.609 142.848 443.586C142.379 443.539 141.84 443.516 141.23 443.516C139.73 443.516 138.406 443.75 137.258 444.219C136.109 444.688 135.137 445.344 134.34 446.188C133.543 447.031 132.91 448.039 132.441 449.211C131.996 450.359 131.703 451.625 131.562 453.008L129.734 454.062C129.734 451.766 129.957 449.609 130.402 447.594C130.871 445.578 131.586 443.797 132.547 442.25C133.508 440.68 134.727 439.461 136.203 438.594C137.703 437.703 139.484 437.258 141.547 437.258C142.016 437.258 142.555 437.316 143.164 437.434C143.773 437.527 144.195 437.633 144.43 437.75ZM156.91 445.52V476H150.371V437.961H156.559L156.91 445.52ZM155.574 455.539L152.551 455.434C152.574 452.832 152.914 450.43 153.57 448.227C154.227 446 155.199 444.066 156.488 442.426C157.777 440.785 159.383 439.52 161.305 438.629C163.227 437.715 165.453 437.258 167.984 437.258C169.766 437.258 171.406 437.516 172.906 438.031C174.406 438.523 175.707 439.309 176.809 440.387C177.91 441.465 178.766 442.848 179.375 444.535C179.984 446.223 180.289 448.262 180.289 450.652V476H173.785V450.969C173.785 448.977 173.445 447.383 172.766 446.188C172.109 444.992 171.172 444.125 169.953 443.586C168.734 443.023 167.305 442.742 165.664 442.742C163.742 442.742 162.137 443.082 160.848 443.762C159.559 444.441 158.527 445.379 157.754 446.574C156.98 447.77 156.418 449.141 156.066 450.688C155.738 452.211 155.574 453.828 155.574 455.539ZM180.219 451.953L175.859 453.289C175.883 451.203 176.223 449.199 176.879 447.277C177.559 445.355 178.531 443.645 179.797 442.145C181.086 440.645 182.668 439.461 184.543 438.594C186.418 437.703 188.562 437.258 190.977 437.258C193.016 437.258 194.82 437.527 196.391 438.066C197.984 438.605 199.32 439.438 200.398 440.562C201.5 441.664 202.332 443.082 202.895 444.816C203.457 446.551 203.738 448.613 203.738 451.004V476H197.199V450.934C197.199 448.801 196.859 447.148 196.18 445.977C195.523 444.781 194.586 443.949 193.367 443.48C192.172 442.988 190.742 442.742 189.078 442.742C187.648 442.742 186.383 442.988 185.281 443.48C184.18 443.973 183.254 444.652 182.504 445.52C181.754 446.363 181.18 447.336 180.781 448.438C180.406 449.539 180.219 450.711 180.219 451.953ZM236.855 467.211V437.961H243.395V476H237.172L236.855 467.211ZM238.086 459.195L240.793 459.125C240.793 461.656 240.523 464 239.984 466.156C239.469 468.289 238.625 470.141 237.453 471.711C236.281 473.281 234.746 474.512 232.848 475.402C230.949 476.27 228.641 476.703 225.922 476.703C224.07 476.703 222.371 476.434 220.824 475.895C219.301 475.355 217.988 474.523 216.887 473.398C215.785 472.273 214.93 470.809 214.32 469.004C213.734 467.199 213.441 465.031 213.441 462.5V437.961H219.945V462.57C219.945 464.281 220.133 465.699 220.508 466.824C220.906 467.926 221.434 468.805 222.09 469.461C222.77 470.094 223.52 470.539 224.34 470.797C225.184 471.055 226.051 471.184 226.941 471.184C229.707 471.184 231.898 470.656 233.516 469.602C235.133 468.523 236.293 467.082 236.996 465.277C237.723 463.449 238.086 461.422 238.086 459.195ZM260.375 422V476H253.836V422H260.375ZM286.602 476.703C283.953 476.703 281.551 476.258 279.395 475.367C277.262 474.453 275.422 473.176 273.875 471.535C272.352 469.895 271.18 467.949 270.359 465.699C269.539 463.449 269.129 460.988 269.129 458.316V456.84C269.129 453.746 269.586 450.992 270.5 448.578C271.414 446.141 272.656 444.078 274.227 442.391C275.797 440.703 277.578 439.426 279.57 438.559C281.562 437.691 283.625 437.258 285.758 437.258C288.477 437.258 290.82 437.727 292.789 438.664C294.781 439.602 296.41 440.914 297.676 442.602C298.941 444.266 299.879 446.234 300.488 448.508C301.098 450.758 301.402 453.219 301.402 455.891V458.809H272.996V453.5H294.898V453.008C294.805 451.32 294.453 449.68 293.844 448.086C293.258 446.492 292.32 445.18 291.031 444.148C289.742 443.117 287.984 442.602 285.758 442.602C284.281 442.602 282.922 442.918 281.68 443.551C280.438 444.16 279.371 445.074 278.48 446.293C277.59 447.512 276.898 449 276.406 450.758C275.914 452.516 275.668 454.543 275.668 456.84V458.316C275.668 460.121 275.914 461.82 276.406 463.414C276.922 464.984 277.66 466.367 278.621 467.562C279.605 468.758 280.789 469.695 282.172 470.375C283.578 471.055 285.172 471.395 286.953 471.395C289.25 471.395 291.195 470.926 292.789 469.988C294.383 469.051 295.777 467.797 296.973 466.227L300.91 469.355C300.09 470.598 299.047 471.781 297.781 472.906C296.516 474.031 294.957 474.945 293.105 475.648C291.277 476.352 289.109 476.703 286.602 476.703ZM333.922 437.961V476H327.383V437.961H333.922ZM326.891 427.871C326.891 426.816 327.207 425.926 327.84 425.199C328.496 424.473 329.457 424.109 330.723 424.109C331.965 424.109 332.914 424.473 333.57 425.199C334.25 425.926 334.59 426.816 334.59 427.871C334.59 428.879 334.25 429.746 333.57 430.473C332.914 431.176 331.965 431.527 330.723 431.527C329.457 431.527 328.496 431.176 327.84 430.473C327.207 429.746 326.891 428.879 326.891 427.871ZM350.867 446.082V476H344.363V437.961H350.516L350.867 446.082ZM349.32 455.539L346.613 455.434C346.637 452.832 347.023 450.43 347.773 448.227C348.523 446 349.578 444.066 350.938 442.426C352.297 440.785 353.914 439.52 355.789 438.629C357.688 437.715 359.785 437.258 362.082 437.258C363.957 437.258 365.645 437.516 367.145 438.031C368.645 438.523 369.922 439.32 370.977 440.422C372.055 441.523 372.875 442.953 373.438 444.711C374 446.445 374.281 448.566 374.281 451.074V476H367.742V451.004C367.742 449.012 367.449 447.418 366.863 446.223C366.277 445.004 365.422 444.125 364.297 443.586C363.172 443.023 361.789 442.742 360.148 442.742C358.531 442.742 357.055 443.082 355.719 443.762C354.406 444.441 353.27 445.379 352.309 446.574C351.371 447.77 350.633 449.141 350.094 450.688C349.578 452.211 349.32 453.828 349.32 455.539ZM405.148 424.812H411.723L428.492 466.543L445.227 424.812H451.836L431.023 476H425.891L405.148 424.812ZM403.004 424.812H408.805L409.754 456.031V476H403.004V424.812ZM448.145 424.812H453.945V476H447.195V456.031L448.145 424.812ZM463.156 457.402V456.594C463.156 453.852 463.555 451.309 464.352 448.965C465.148 446.598 466.297 444.547 467.797 442.812C469.297 441.055 471.113 439.695 473.246 438.734C475.379 437.75 477.77 437.258 480.418 437.258C483.09 437.258 485.492 437.75 487.625 438.734C489.781 439.695 491.609 441.055 493.109 442.812C494.633 444.547 495.793 446.598 496.59 448.965C497.387 451.309 497.785 453.852 497.785 456.594V457.402C497.785 460.145 497.387 462.688 496.59 465.031C495.793 467.375 494.633 469.426 493.109 471.184C491.609 472.918 489.793 474.277 487.66 475.262C485.551 476.223 483.16 476.703 480.488 476.703C477.816 476.703 475.414 476.223 473.281 475.262C471.148 474.277 469.32 472.918 467.797 471.184C466.297 469.426 465.148 467.375 464.352 465.031C463.555 462.688 463.156 460.145 463.156 457.402ZM469.66 456.594V457.402C469.66 459.301 469.883 461.094 470.328 462.781C470.773 464.445 471.441 465.922 472.332 467.211C473.246 468.5 474.383 469.52 475.742 470.27C477.102 470.996 478.684 471.359 480.488 471.359C482.27 471.359 483.828 470.996 485.164 470.27C486.523 469.52 487.648 468.5 488.539 467.211C489.43 465.922 490.098 464.445 490.543 462.781C491.012 461.094 491.246 459.301 491.246 457.402V456.594C491.246 454.719 491.012 452.949 490.543 451.285C490.098 449.598 489.418 448.109 488.504 446.82C487.613 445.508 486.488 444.477 485.129 443.727C483.793 442.977 482.223 442.602 480.418 442.602C478.637 442.602 477.066 442.977 475.707 443.727C474.371 444.477 473.246 445.508 472.332 446.82C471.441 448.109 470.773 449.598 470.328 451.285C469.883 452.949 469.66 454.719 469.66 456.594ZM516.945 470.129L527.352 437.961H533.996L520.32 476H515.961L516.945 470.129ZM508.262 437.961L518.984 470.305L519.723 476H515.363L501.582 437.961H508.262ZM547.32 437.961V476H540.781V437.961H547.32ZM540.289 427.871C540.289 426.816 540.605 425.926 541.238 425.199C541.895 424.473 542.855 424.109 544.121 424.109C545.363 424.109 546.312 424.473 546.969 425.199C547.648 425.926 547.988 426.816 547.988 427.871C547.988 428.879 547.648 429.746 546.969 430.473C546.312 431.176 545.363 431.527 544.121 431.527C542.855 431.527 541.895 431.176 541.238 430.473C540.605 429.746 540.289 428.879 540.289 427.871ZM564.23 445.52V476H557.691V437.961H563.879L564.23 445.52ZM562.895 455.539L559.871 455.434C559.895 452.832 560.234 450.43 560.891 448.227C561.547 446 562.52 444.066 563.809 442.426C565.098 440.785 566.703 439.52 568.625 438.629C570.547 437.715 572.773 437.258 575.305 437.258C577.086 437.258 578.727 437.516 580.227 438.031C581.727 438.523 583.027 439.309 584.129 440.387C585.23 441.465 586.086 442.848 586.695 444.535C587.305 446.223 587.609 448.262 587.609 450.652V476H581.105V450.969C581.105 448.977 580.766 447.383 580.086 446.188C579.43 444.992 578.492 444.125 577.273 443.586C576.055 443.023 574.625 442.742 572.984 442.742C571.062 442.742 569.457 443.082 568.168 443.762C566.879 444.441 565.848 445.379 565.074 446.574C564.301 447.77 563.738 449.141 563.387 450.688C563.059 452.211 562.895 453.828 562.895 455.539ZM587.539 451.953L583.18 453.289C583.203 451.203 583.543 449.199 584.199 447.277C584.879 445.355 585.852 443.645 587.117 442.145C588.406 440.645 589.988 439.461 591.863 438.594C593.738 437.703 595.883 437.258 598.297 437.258C600.336 437.258 602.141 437.527 603.711 438.066C605.305 438.605 606.641 439.438 607.719 440.562C608.82 441.664 609.652 443.082 610.215 444.816C610.777 446.551 611.059 448.613 611.059 451.004V476H604.52V450.934C604.52 448.801 604.18 447.148 603.5 445.977C602.844 444.781 601.906 443.949 600.688 443.48C599.492 442.988 598.062 442.742 596.398 442.742C594.969 442.742 593.703 442.988 592.602 443.48C591.5 443.973 590.574 444.652 589.824 445.52C589.074 446.363 588.5 447.336 588.102 448.438C587.727 449.539 587.539 450.711 587.539 451.953ZM636.688 476.703C634.039 476.703 631.637 476.258 629.48 475.367C627.348 474.453 625.508 473.176 623.961 471.535C622.438 469.895 621.266 467.949 620.445 465.699C619.625 463.449 619.215 460.988 619.215 458.316V456.84C619.215 453.746 619.672 450.992 620.586 448.578C621.5 446.141 622.742 444.078 624.312 442.391C625.883 440.703 627.664 439.426 629.656 438.559C631.648 437.691 633.711 437.258 635.844 437.258C638.562 437.258 640.906 437.727 642.875 438.664C644.867 439.602 646.496 440.914 647.762 442.602C649.027 444.266 649.965 446.234 650.574 448.508C651.184 450.758 651.488 453.219 651.488 455.891V458.809H623.082V453.5H644.984V453.008C644.891 451.32 644.539 449.68 643.93 448.086C643.344 446.492 642.406 445.18 641.117 444.148C639.828 443.117 638.07 442.602 635.844 442.602C634.367 442.602 633.008 442.918 631.766 443.551C630.523 444.16 629.457 445.074 628.566 446.293C627.676 447.512 626.984 449 626.492 450.758C626 452.516 625.754 454.543 625.754 456.84V458.316C625.754 460.121 626 461.82 626.492 463.414C627.008 464.984 627.746 466.367 628.707 467.562C629.691 468.758 630.875 469.695 632.258 470.375C633.664 471.055 635.258 471.395 637.039 471.395C639.336 471.395 641.281 470.926 642.875 469.988C644.469 469.051 645.863 467.797 647.059 466.227L650.996 469.355C650.176 470.598 649.133 471.781 647.867 472.906C646.602 474.031 645.043 474.945 643.191 475.648C641.363 476.352 639.195 476.703 636.688 476.703ZM665.586 446.082V476H659.082V437.961H665.234L665.586 446.082ZM664.039 455.539L661.332 455.434C661.355 452.832 661.742 450.43 662.492 448.227C663.242 446 664.297 444.066 665.656 442.426C667.016 440.785 668.633 439.52 670.508 438.629C672.406 437.715 674.504 437.258 676.801 437.258C678.676 437.258 680.363 437.516 681.863 438.031C683.363 438.523 684.641 439.32 685.695 440.422C686.773 441.523 687.594 442.953 688.156 444.711C688.719 446.445 689 448.566 689 451.074V476H682.461V451.004C682.461 449.012 682.168 447.418 681.582 446.223C680.996 445.004 680.141 444.125 679.016 443.586C677.891 443.023 676.508 442.742 674.867 442.742C673.25 442.742 671.773 443.082 670.438 443.762C669.125 444.441 667.988 445.379 667.027 446.574C666.09 447.77 665.352 449.141 664.812 450.688C664.297 452.211 664.039 453.828 664.039 455.539ZM714.805 437.961V442.953H694.238V437.961H714.805ZM701.199 428.715H707.703V466.578C707.703 467.867 707.902 468.84 708.301 469.496C708.699 470.152 709.215 470.586 709.848 470.797C710.48 471.008 711.16 471.113 711.887 471.113C712.426 471.113 712.988 471.066 713.574 470.973C714.184 470.855 714.641 470.762 714.945 470.691L714.98 476C714.465 476.164 713.785 476.316 712.941 476.457C712.121 476.621 711.125 476.703 709.953 476.703C708.359 476.703 706.895 476.387 705.559 475.754C704.223 475.121 703.156 474.066 702.359 472.59C701.586 471.09 701.199 469.074 701.199 466.543V428.715ZM720.008 457.402V456.594C720.008 453.852 720.406 451.309 721.203 448.965C722 446.598 723.148 444.547 724.648 442.812C726.148 441.055 727.965 439.695 730.098 438.734C732.23 437.75 734.621 437.258 737.27 437.258C739.941 437.258 742.344 437.75 744.477 438.734C746.633 439.695 748.461 441.055 749.961 442.812C751.484 444.547 752.645 446.598 753.441 448.965C754.238 451.309 754.637 453.852 754.637 456.594V457.402C754.637 460.145 754.238 462.688 753.441 465.031C752.645 467.375 751.484 469.426 749.961 471.184C748.461 472.918 746.645 474.277 744.512 475.262C742.402 476.223 740.012 476.703 737.34 476.703C734.668 476.703 732.266 476.223 730.133 475.262C728 474.277 726.172 472.918 724.648 471.184C723.148 469.426 722 467.375 721.203 465.031C720.406 462.688 720.008 460.145 720.008 457.402ZM726.512 456.594V457.402C726.512 459.301 726.734 461.094 727.18 462.781C727.625 464.445 728.293 465.922 729.184 467.211C730.098 468.5 731.234 469.52 732.594 470.27C733.953 470.996 735.535 471.359 737.34 471.359C739.121 471.359 740.68 470.996 742.016 470.27C743.375 469.52 744.5 468.5 745.391 467.211C746.281 465.922 746.949 464.445 747.395 462.781C747.863 461.094 748.098 459.301 748.098 457.402V456.594C748.098 454.719 747.863 452.949 747.395 451.285C746.949 449.598 746.27 448.109 745.355 446.82C744.465 445.508 743.34 444.477 741.98 443.727C740.645 442.977 739.074 442.602 737.27 442.602C735.488 442.602 733.918 442.977 732.559 443.727C731.223 444.477 730.098 445.508 729.184 446.82C728.293 448.109 727.625 449.598 727.18 451.285C726.734 452.949 726.512 454.719 726.512 456.594Z" fill="black"/>
</svg>
